<svg xmlns="http://www.w3.org/2000/svg" fill="none" viewBox="0 0 64 64">
  <path fill="#fff" d="M45 24.3a2.7 2.7 0 0 1-2.7 2.7H21.7a2.7 2.7 0 0 1-2.7-2.7c0-.554.088-1.051.21-1.474.3-1.041 1.325-1.585 2.407-1.639C23.33 21.102 26.527 21 32 21c5.472 0 8.67.102 10.383.187 1.082.054 2.107.598 2.407 1.639.122.423.21.92.21 1.474Z"/>
  <path fill="#000" fill-rule="evenodd" d="M21.7 25h20.6a.7.7 0 0 0 .7-.7 3.29 3.29 0 0 0-.132-.92l-.003-.009a.236.236 0 0 0-.058-.047 1.112 1.112 0 0 0-.523-.139C40.612 23.102 37.449 23 32 23c-5.449 0-8.612.102-10.284.185a1.112 1.112 0 0 0-.523.14.24.24 0 0 0-.058.046l-.003.009a3.324 3.324 0 0 0-.132.92.7.7 0 0 0 .7.7Zm20.6 2a2.7 2.7 0 0 0 2.7-2.7c0-.554-.088-1.051-.21-1.474-.3-1.041-1.325-1.585-2.407-1.639C40.67 21.102 37.473 21 32 21c-5.472 0-8.67.102-10.383.187-1.082.054-2.107.598-2.407 1.639-.122.423-.21.92-.21 1.474a2.7 2.7 0 0 0 2.7 2.7h20.6Z" clip-rule="evenodd"/>
  <path fill="#fff" d="M45.89 33.062C45.553 34.356 44.198 35 42.86 35H21.14c-1.337 0-2.692-.644-3.03-1.938A3.049 3.049 0 0 1 18 32.3c0-.593.108-1.12.254-1.561.327-.992 1.325-1.492 2.368-1.542C22.415 29.11 25.892 29 32 29c6.109 0 9.585.11 11.378.197 1.043.05 2.041.55 2.368 1.541.146.442.254.97.254 1.562 0 .247-.042.506-.11.762Z"/>
  <path fill="#000" fill-rule="evenodd" d="M21.14 33h21.72c.367 0 .68-.092.875-.207.175-.103.208-.187.22-.237A1.13 1.13 0 0 0 44 32.3c0-.347-.063-.663-.153-.935a.251.251 0 0 0-.053-.04 1.13 1.13 0 0 0-.513-.13C41.53 31.11 38.087 31 32 31c-6.087 0-9.53.11-11.281.194a1.13 1.13 0 0 0-.513.13.251.251 0 0 0-.053.04c-.09.273-.153.588-.153.936 0 .028.006.11.044.256.013.05.046.134.221.237.196.115.508.207.876.207Zm21.72 2c1.337 0 2.692-.644 3.03-1.938.068-.256.11-.515.11-.762 0-.593-.108-1.12-.254-1.561-.327-.992-1.325-1.492-2.368-1.542C41.585 29.11 38.108 29 32 29c-6.109 0-9.585.11-11.378.197-1.043.05-2.041.55-2.368 1.541A4.981 4.981 0 0 0 18 32.3c0 .247.042.506.11.762.338 1.294 1.693 1.938 3.03 1.938h21.72Z" clip-rule="evenodd"/>
  <path fill="#fff" d="M19 39.7a2.7 2.7 0 0 1 2.7-2.7h20.6a2.7 2.7 0 0 1 2.7 2.7c0 .554-.088 1.051-.21 1.474-.3 1.041-1.325 1.585-2.407 1.639C40.67 42.898 37.473 43 32 43c-5.472 0-8.67-.102-10.383-.187-1.082-.054-2.107-.598-2.407-1.639A5.323 5.323 0 0 1 19 39.7Z"/>
  <path fill="#000" fill-rule="evenodd" d="M42.3 39H21.7a.7.7 0 0 0-.7.7c0 .342.054.652.132.92l.003.009a.24.24 0 0 0 .058.047c.091.058.27.126.523.139C23.388 40.898 26.551 41 32 41c5.449 0 8.612-.102 10.284-.185.254-.013.432-.081.523-.14a.24.24 0 0 0 .058-.046l.003-.008c.078-.27.132-.58.132-.921a.7.7 0 0 0-.7-.7Zm-20.6-2a2.7 2.7 0 0 0-2.7 2.7c0 .554.088 1.051.21 1.474.3 1.041 1.325 1.585 2.407 1.639C23.33 42.898 26.527 43 32 43c5.472 0 8.67-.102 10.383-.187 1.082-.054 2.107-.598 2.407-1.639.122-.423.21-.92.21-1.474a2.7 2.7 0 0 0-2.7-2.7H21.7Z" clip-rule="evenodd"/>
</svg>