<svg xmlns="http://www.w3.org/2000/svg" fill="none" viewBox="0 0 64 64">
  <path fill="#000" fill-rule="evenodd" d="M23.538 21.325A5.001 5.001 0 0 1 28.492 17h7.015c2.5 0 4.617 1.847 4.955 4.325l.755 5.54-1.982.27-.755-5.54A3.001 3.001 0 0 0 35.508 19h-7.015a3.003 3.003 0 0 0-2.974 2.595l-.755 5.54-1.982-.27.756-5.54Z" clip-rule="evenodd"/>
  <path fill="#fff" stroke="#000" stroke-width="2" d="M19 30a3 3 0 0 1 3-3h20a3 3 0 0 1 3 3v5c0 3.312-.31 6-.58 7.712-.148.93-.807 1.593-1.687 1.719C40.881 44.696 37.546 45 32 45s-8.881-.304-10.733-.57c-.88-.125-1.54-.787-1.686-1.718A49.95 49.95 0 0 1 19 35v-5.001Z"/>
</svg>