<svg width="85" height="95" viewBox="0 0 85 95" fill="none" xmlns="http://www.w3.org/2000/svg">
<path fill-rule="evenodd" clip-rule="evenodd" d="M28.963 10.1917L11.8856 11.5187L14.8324 66.7997L24.145 66.9015L28.963 10.1917ZM24.1395 74.5455L14.7598 74.1588L14.6705 79.509L22.856 82.3824L24.1395 74.5455Z" fill="white"/>
<path fill-rule="evenodd" clip-rule="evenodd" d="M57.437 9.77683L37.6689 3.95361L32.1355 73.8422L40.5224 73.0136L57.437 9.77683ZM29.5189 80.1407L40.067 79.7295L39.9934 84.8456L30.7057 87.6297L29.5189 80.1407Z" fill="white"/>
<path fill-rule="evenodd" clip-rule="evenodd" d="M81.3609 30.2699L69.6642 19.1573L49.0765 70.5482L56.3009 72.3739L81.3609 30.2699ZM47.805 74.5898L52.8237 78.34L50.0135 82.5831L44.28 81.3033L47.805 74.5898Z" fill="white"/>
</svg>
