<svg xmlns="http://www.w3.org/2000/svg" fill="none" viewBox="0 0 64 50">
  <g clip-path="url(#a)">
    <path fill="#000" d="M11.6 49.44v-3.288c0-1.258-.769-2.082-2.088-2.082-.66 0-1.378.217-1.87.932-.385-.6-.936-.932-1.762-.932-.551 0-1.102.166-1.537.766v-.657H3.19v5.26h1.153v-2.904c0-.933.493-1.373 1.261-1.373.769 0 1.153.492 1.153 1.373v2.905H7.91v-2.905c0-.933.551-1.373 1.262-1.373.769 0 1.153.492 1.153 1.373v2.905H11.6Zm17.1-5.261h-1.87v-1.59h-1.153v1.59h-1.044v1.04h1.044v2.414c0 1.207.493 1.915 1.813 1.915.493 0 1.044-.166 1.428-.383l-.333-.99a1.849 1.849 0 0 1-.993.275c-.55 0-.768-.332-.768-.875V45.22h1.87v-1.04h.006Zm9.787-.115c-.66 0-1.101.332-1.377.766v-.658h-1.153v5.262h1.153V46.47c0-.875.385-1.373 1.102-1.373.218 0 .493.057.717.108l.333-1.098c-.23-.044-.557-.044-.775-.044Zm-14.79.549c-.55-.383-1.319-.55-2.145-.55-1.32 0-2.197.658-2.197 1.699 0 .875.66 1.373 1.813 1.532l.55.058c.603.109.936.275.936.549 0 .383-.442.658-1.21.658a3.046 3.046 0 0 1-1.762-.55l-.55.875c.601.44 1.427.658 2.254.658 1.537 0 2.42-.715 2.42-1.698 0-.933-.717-1.424-1.812-1.59l-.55-.058c-.494-.057-.878-.166-.878-.491 0-.384.384-.6.993-.6.66 0 1.319.274 1.652.44l.487-.932Zm30.675-.55c-.66 0-1.102.333-1.377.767v-.658h-1.153v5.262h1.153V46.47c0-.875.384-1.373 1.102-1.373.217 0 .493.057.717.108l.333-1.085c-.224-.057-.55-.057-.775-.057ZM39.641 46.81c0 1.59 1.102 2.74 2.806 2.74.768 0 1.32-.167 1.87-.6l-.55-.933c-.443.332-.878.492-1.378.492-.935 0-1.595-.658-1.595-1.699 0-.99.66-1.647 1.595-1.698.493 0 .935.166 1.377.491l.551-.932c-.55-.44-1.102-.6-1.87-.6-1.704-.006-2.806 1.15-2.806 2.74Zm10.665 0v-2.63h-1.153v.657c-.384-.492-.935-.766-1.653-.766-1.486 0-2.639 1.15-2.639 2.74 0 1.59 1.153 2.738 2.64 2.738.768 0 1.319-.274 1.652-.766v.658h1.153v-2.63Zm-4.234 0c0-.932.602-1.698 1.595-1.698.935 0 1.595.715 1.595 1.698 0 .932-.66 1.699-1.595 1.699-.986-.058-1.595-.773-1.595-1.699Zm-13.797-2.745c-1.537 0-2.638 1.098-2.638 2.739 0 1.647 1.101 2.739 2.696 2.739.769 0 1.537-.217 2.146-.715l-.551-.824c-.442.332-.993.55-1.537.55-.718 0-1.429-.333-1.595-1.259h3.9v-.44c.052-1.692-.941-2.79-2.42-2.79Zm0 .99c.718 0 1.21.44 1.32 1.257h-2.748c.109-.709.602-1.258 1.428-1.258Zm28.644 1.755v-4.712h-1.153v2.74c-.384-.493-.935-.767-1.652-.767-1.486 0-2.64 1.15-2.64 2.74 0 1.59 1.154 2.738 2.64 2.738.768 0 1.32-.274 1.652-.766v.658h1.153v-2.63Zm-4.234 0c0-.932.602-1.698 1.595-1.698.935 0 1.595.715 1.595 1.698 0 .932-.66 1.699-1.595 1.699-.993-.058-1.595-.773-1.595-1.699Zm-38.597 0v-2.63h-1.153v.657c-.384-.492-.935-.766-1.652-.766-1.486 0-2.64 1.15-2.64 2.74 0 1.59 1.154 2.738 2.64 2.738.768 0 1.319-.274 1.652-.766v.658h1.153v-2.63Zm-4.285 0c0-.932.602-1.698 1.595-1.698.935 0 1.595.715 1.595 1.698 0 .932-.66 1.699-1.595 1.699-.993-.058-1.595-.773-1.595-1.699Z"/>
    <path fill="#FF5A00" d="M40.634 4.22h-17.32v31.02h17.32V4.22Z"/>
    <path fill="#EB001B" d="M24.468 19.73c0-6.302 2.972-11.895 7.532-15.51A19.725 19.725 0 0 0 19.792 0C8.852 0 0 8.824 0 19.73s8.852 19.73 19.792 19.73c4.618 0 8.852-1.59 12.208-4.22a19.668 19.668 0 0 1-7.532-15.51Z"/>
    <path fill="#F79E1B" d="M64 19.73c0 10.906-8.852 19.73-19.792 19.73-4.618 0-8.852-1.59-12.208-4.22a19.6 19.6 0 0 0 7.532-15.51c0-6.302-2.972-11.895-7.532-15.51A19.693 19.693 0 0 1 44.202 0C55.148 0 64 8.882 64 19.73Z"/>
  </g>
  <defs>
    <clipPath id="a">
      <path fill="#fff" d="M0 0h64v49.548H0z"/>
    </clipPath>
  </defs>
</svg>