<?xml version="1.0" standalone="no"?>
<!DOCTYPE svg PUBLIC "-//W3C//DTD SVG 20010904//EN"
 "http://www.w3.org/TR/2001/REC-SVG-20010904/DTD/svg10.dtd">
<svg version="1.0" xmlns="http://www.w3.org/2000/svg"
 width="1088.000000pt" height="1088.000000pt" viewBox="0 0 1088.000000 1088.000000"
 preserveAspectRatio="xMidYMid meet">
<metadata>
Created by potrace 1.14, written by Peter Selinger 2001-2017
</metadata>
<g transform="translate(0.000000,1088.000000) scale(0.100000,-0.100000)"
fill="#000000" stroke="none">
<path d="M5378 10075 c-3 -3 -140 -14 -248 -20 -25 -2 -45 -4 -45 -5 0 -1 -22
-4 -50 -6 -27 -1 -50 -3 -50 -4 0 -1 -9 -3 -20 -4 -38 -5 -130 -18 -145 -21
-41 -7 -107 -18 -125 -21 -11 -1 -45 -8 -75 -13 -30 -6 -65 -13 -78 -16 -13
-2 -31 -6 -40 -9 -9 -3 -28 -7 -42 -10 -14 -2 -45 -9 -70 -15 -25 -7 -56 -14
-70 -17 -37 -7 -143 -35 -160 -42 -8 -3 -22 -7 -30 -8 -34 -6 -46 -10 -58 -17
-7 -5 -22 -10 -35 -12 -60 -12 -420 -139 -524 -186 -24 -10 -45 -19 -48 -19
-8 0 -196 -85 -323 -146 -62 -30 -117 -54 -122 -54 -4 0 -10 -4 -12 -8 -1 -5
-51 -34 -110 -65 -59 -31 -136 -75 -173 -97 -36 -22 -70 -40 -75 -40 -6 0 -10
-4 -10 -10 0 -5 -11 -12 -25 -16 -14 -3 -25 -9 -25 -13 0 -4 -11 -13 -25 -19
-14 -7 -31 -16 -38 -22 -7 -5 -64 -44 -127 -86 -63 -42 -116 -80 -118 -85 -2
-5 -8 -9 -13 -9 -9 0 -246 -174 -259 -190 -3 -3 -25 -21 -50 -40 -24 -19 -52
-42 -60 -50 -9 -8 -37 -33 -64 -55 -96 -79 -174 -152 -346 -325 -170 -171
-228 -233 -368 -400 -44 -53 -189 -242 -222 -290 -19 -28 -40 -57 -45 -63 -22
-26 -195 -297 -249 -392 -60 -104 -246 -474 -250 -497 -1 -7 -11 -33 -22 -58
-11 -25 -29 -67 -39 -95 -10 -27 -22 -54 -27 -59 -4 -6 -8 -16 -8 -22 0 -7 -5
-25 -12 -41 -6 -15 -12 -32 -14 -38 -1 -5 -18 -62 -38 -125 -20 -63 -42 -133
-48 -155 -6 -22 -13 -47 -16 -55 -3 -8 -6 -23 -7 -32 -2 -10 -3 -19 -5 -20 -1
-2 -3 -10 -5 -18 -2 -8 -8 -35 -14 -60 -7 -25 -14 -59 -16 -77 -2 -17 -8 -49
-14 -70 -5 -21 -13 -58 -16 -83 -4 -25 -9 -56 -11 -70 -2 -14 -6 -45 -9 -70
-3 -25 -7 -59 -10 -76 -26 -178 -27 -684 0 -879 2 -16 7 -48 10 -70 3 -22 8
-60 11 -85 3 -25 8 -56 11 -70 4 -14 6 -28 5 -32 -1 -4 3 -31 9 -60 6 -29 12
-64 15 -78 2 -14 7 -36 10 -50 3 -14 8 -34 10 -45 11 -56 14 -68 18 -83 3 -9
7 -28 10 -42 9 -44 14 -64 30 -121 9 -31 18 -65 21 -75 5 -27 83 -265 94 -289
5 -11 21 -51 35 -88 41 -107 75 -181 147 -322 70 -139 187 -338 201 -343 4 -2
8 -8 8 -13 0 -6 5 -15 10 -22 6 -7 43 -57 84 -112 40 -55 82 -110 92 -122 10
-12 35 -41 54 -64 93 -113 269 -288 386 -385 26 -21 57 -47 68 -56 12 -10 46
-37 76 -60 30 -23 57 -45 60 -48 15 -18 314 -210 326 -210 8 0 14 -4 14 -10 0
-5 6 -10 14 -10 8 0 16 -3 18 -8 6 -13 436 -231 468 -236 3 -1 46 -17 95 -37
114 -46 128 -52 137 -53 3 -1 10 -4 14 -9 4 -4 13 -7 20 -7 7 0 25 -5 41 -12
15 -6 30 -12 33 -12 3 -1 25 -9 50 -18 51 -18 150 -49 165 -52 6 -1 16 -5 23
-9 6 -5 12 -6 12 -3 0 3 12 1 28 -5 26 -11 187 -56 225 -64 10 -2 26 -6 35 -9
9 -3 28 -7 42 -10 14 -3 34 -7 45 -10 11 -3 53 -12 94 -21 41 -9 77 -18 80
-19 3 -2 28 -7 55 -10 27 -4 53 -9 57 -11 4 -3 22 -7 40 -10 19 -2 43 -6 54
-8 20 -5 65 -12 139 -23 21 -3 48 -7 59 -10 12 -2 39 -6 62 -9 22 -3 51 -8 65
-10 66 -11 133 -20 240 -30 35 -3 78 -8 94 -11 28 -5 95 -11 211 -20 28 -2 79
-6 115 -8 287 -23 494 -30 955 -30 417 -1 672 8 884 29 31 3 85 8 121 10 36 3
81 7 100 10 19 3 58 8 85 10 62 6 92 12 107 21 7 5 8 3 3 -6 -5 -8 -4 -11 2
-7 5 3 23 8 39 11 67 12 91 15 139 22 28 3 59 8 70 11 11 2 34 6 50 9 17 3 65
12 108 20 42 9 90 17 105 20 21 3 117 24 182 39 3 1 24 7 48 14 23 6 47 9 52
6 6 -3 10 -1 10 5 0 6 6 10 13 8 6 -1 28 3 48 10 20 7 47 15 60 18 13 3 29 6
34 8 74 20 115 32 195 58 52 16 104 33 115 38 11 5 56 21 100 36 44 16 91 34
105 41 14 7 31 13 38 13 7 0 20 4 30 10 24 13 131 60 138 60 16 0 429 212 459
235 11 8 32 21 47 28 15 6 28 15 28 19 0 5 5 8 10 8 9 0 202 125 235 152 13
10 71 55 115 88 19 14 41 32 50 40 8 8 34 30 58 48 62 49 165 146 256 241 123
128 136 141 136 145 0 2 20 26 45 52 25 27 45 54 45 61 0 6 4 13 9 15 15 5 83
96 163 218 88 135 123 194 181 310 23 47 44 87 48 90 9 9 42 84 42 98 0 6 3
12 7 12 3 0 12 17 19 38 8 20 21 55 31 77 17 37 86 231 95 265 3 8 16 53 30
100 15 47 28 94 30 105 3 17 24 103 39 166 3 9 7 33 10 54 4 20 8 40 10 44 2
3 7 26 10 51 3 25 8 59 11 75 11 65 14 92 20 150 4 33 8 70 10 81 23 147 27
864 5 864 -3 0 -6 8 -6 18 -3 51 -12 141 -16 148 -2 5 -5 23 -6 39 -2 30 -9
70 -12 70 -1 0 -3 18 -6 40 -2 22 -8 58 -13 80 -6 22 -22 94 -36 160 -15 66
-29 127 -32 135 -4 8 -5 19 -4 23 0 4 -3 16 -8 25 -5 9 -11 31 -14 47 -3 17
-10 44 -15 60 -6 17 -18 55 -27 85 -9 30 -19 62 -23 70 -3 8 -6 17 -7 20 -19
75 -166 453 -177 458 -5 2 -8 11 -8 19 0 19 -206 441 -225 463 -8 8 -15 20
-16 25 -1 6 -7 19 -14 30 -7 11 -51 85 -99 165 -113 188 -108 181 -127 202 -9
10 -22 31 -30 46 -8 15 -16 29 -20 32 -3 3 -29 40 -59 83 -29 42 -57 77 -62
77 -4 0 -8 6 -8 13 0 6 -11 26 -24 42 -128 160 -202 252 -211 261 -5 6 -32 37
-60 70 -137 160 -388 411 -555 554 -29 25 -58 50 -64 55 -6 6 -49 41 -96 79
-47 37 -93 74 -103 82 -9 8 -21 14 -26 14 -5 0 -11 4 -13 9 -2 7 -173 132
-248 182 -112 74 -201 129 -210 129 -5 0 -10 4 -10 8 0 5 -16 14 -35 22 -19 8
-35 17 -35 21 0 4 -8 9 -17 12 -17 6 -94 48 -159 88 -17 10 -34 16 -37 12 -4
-3 -7 -1 -7 5 0 7 -4 12 -10 12 -5 0 -63 27 -130 59 -66 33 -120 58 -120 56 0
-3 -17 4 -37 15 -57 28 -357 144 -403 155 -8 2 -44 13 -80 25 -61 19 -237 69
-270 75 -8 2 -15 4 -15 5 0 1 -11 4 -25 6 -14 3 -41 9 -60 14 -19 5 -53 12
-75 16 -22 3 -43 8 -46 9 -7 5 -230 43 -294 50 -27 4 -61 8 -75 9 -14 2 -59 7
-100 11 -41 4 -93 9 -115 12 -47 5 -642 13 -647 8z m293 -635 c15 5 30 6 32 3
3 -2 63 -6 133 -8 134 -4 191 -9 367 -30 23 -3 67 -10 97 -15 30 -5 72 -12 94
-16 21 -3 48 -8 60 -10 11 -3 35 -7 51 -10 17 -3 55 -12 85 -19 30 -8 66 -16
80 -19 66 -13 330 -92 385 -116 11 -5 38 -14 60 -21 22 -6 46 -16 53 -22 6 -5
12 -6 12 -3 0 4 12 1 28 -7 15 -8 56 -27 92 -42 36 -15 107 -47 159 -71 51
-24 97 -44 101 -44 5 0 10 -3 12 -7 2 -5 50 -32 108 -62 58 -30 107 -57 110
-60 3 -3 21 -15 40 -25 19 -10 79 -48 133 -82 54 -35 102 -64 107 -64 4 0 10
-4 12 -8 2 -4 25 -23 53 -42 50 -35 253 -190 290 -222 11 -9 31 -26 45 -38
109 -92 165 -145 305 -285 177 -178 198 -201 305 -330 117 -141 112 -134 200
-255 39 -52 73 -99 78 -105 26 -33 112 -166 112 -175 0 -5 5 -10 10 -10 6 0
10 -7 10 -15 0 -8 5 -15 10 -15 6 0 10 -4 10 -9 0 -5 15 -32 33 -59 39 -62 66
-110 66 -119 0 -3 3 -9 8 -12 4 -3 18 -24 29 -46 12 -22 35 -65 51 -95 43 -78
77 -144 78 -150 0 -3 20 -45 44 -95 24 -49 44 -94 46 -100 2 -9 18 -47 50
-120 33 -73 140 -378 150 -425 2 -8 4 -15 5 -15 1 0 3 -7 5 -15 58 -225 94
-374 98 -406 3 -21 8 -50 11 -64 9 -45 27 -176 42 -300 3 -30 8 -111 10 -180
1 -69 4 -127 5 -130 1 -3 0 -9 -1 -15 -1 -5 -3 -66 -5 -135 -5 -158 -12 -241
-31 -351 -2 -15 -6 -44 -9 -65 -7 -56 -51 -279 -55 -279 -1 0 -3 -9 -4 -20 -8
-58 -96 -339 -108 -343 -4 -2 -6 -7 -3 -12 6 -10 -65 -182 -80 -192 -5 -4 -6
-8 -2 -8 11 0 -124 -260 -135 -260 -4 0 -8 -7 -8 -15 0 -15 -118 -198 -132
-203 -4 -2 -8 -8 -8 -14 0 -5 -6 -15 -12 -23 -29 -30 -48 -56 -48 -65 0 -6 -4
-10 -8 -10 -4 0 -26 -23 -47 -52 -67 -87 -273 -290 -390 -383 -27 -22 -52 -43
-55 -46 -13 -15 -254 -180 -320 -219 -127 -76 -369 -200 -389 -200 -6 0 -11
-5 -11 -10 0 -6 -3 -9 -7 -8 -5 0 -17 -2 -28 -7 -32 -13 -108 -45 -130 -55
-130 -60 -657 -222 -795 -244 -8 -2 -28 -6 -45 -9 -16 -4 -41 -9 -55 -12 -14
-3 -47 -9 -75 -15 -66 -13 -92 -17 -205 -36 -52 -8 -107 -17 -121 -19 -29 -5
-65 -10 -159 -20 -36 -4 -72 -9 -80 -10 -8 -2 -44 -6 -80 -9 -36 -4 -85 -9
-110 -11 -25 -3 -85 -7 -135 -10 -49 -3 -120 -8 -157 -11 -37 -3 -155 -7 -263
-9 -107 -2 -199 -6 -204 -10 -5 -3 -12 -2 -15 3 -6 9 -59 8 -75 -3 -6 -3 -11
-2 -11 3 0 6 -14 7 -34 2 -19 -4 -37 -6 -39 -3 -3 2 -107 6 -233 8 -126 3
-267 7 -314 10 -47 2 -128 7 -180 10 -52 2 -119 7 -147 10 -101 10 -158 15
-203 20 -79 7 -234 24 -285 31 -16 2 -50 6 -74 9 -42 5 -319 50 -365 59 -12 3
-46 10 -76 16 -30 6 -66 13 -80 15 -14 2 -36 7 -50 10 -14 3 -36 8 -50 11 -14
3 -33 7 -42 10 -9 3 -25 7 -35 9 -10 2 -45 11 -77 20 -33 8 -69 17 -80 20 -12
2 -21 4 -21 5 0 1 -7 3 -15 5 -8 1 -49 13 -90 26 -41 12 -79 23 -85 25 -5 1
-32 10 -60 19 -27 10 -54 19 -60 20 -10 2 -21 6 -80 28 -16 6 -34 12 -40 13
-16 3 -233 92 -305 126 -139 63 -324 162 -410 217 -30 20 -59 38 -65 41 -39
20 -85 53 -85 61 0 5 -5 9 -11 9 -13 0 -191 136 -264 201 -218 195 -421 441
-561 679 -46 78 -185 359 -189 382 -3 11 -9 25 -14 32 -5 6 -10 16 -11 21 -5
20 -29 88 -63 180 -7 17 -12 32 -12 35 -1 3 -4 14 -8 25 -3 11 -8 31 -11 45
-3 14 -17 66 -31 115 -21 76 -34 132 -60 256 -2 9 -6 34 -9 55 -4 22 -11 64
-16 94 -5 30 -12 78 -15 105 -3 28 -8 61 -10 75 -10 56 -19 191 -20 297 0 62
-4 113 -8 113 -5 0 -5 4 -2 10 3 5 8 61 10 124 5 143 19 275 41 391 2 11 9 45
14 75 9 48 19 99 34 165 13 58 59 222 66 235 4 8 9 20 9 25 3 26 71 216 121
335 35 85 195 412 221 450 9 14 36 59 60 100 24 41 47 77 51 78 5 2 8 8 8 13
0 18 205 310 222 317 4 2 8 8 8 13 0 12 188 242 206 252 8 4 14 11 14 16 0 15
218 241 371 386 114 108 321 281 444 372 71 52 153 110 195 138 25 17 50 34
55 38 42 34 381 237 394 237 5 0 14 7 21 15 7 9 15 13 18 11 3 -3 17 3 31 13
23 16 240 124 331 164 120 54 148 65 170 72 14 4 30 11 35 15 6 4 30 15 55 23
25 9 90 32 145 52 55 20 107 38 115 40 8 2 44 13 80 25 36 12 72 23 80 25 8 2
15 4 15 5 0 1 7 3 15 5 8 1 35 9 60 16 25 7 48 12 53 11 4 -1 7 3 7 9 0 5 4 8
10 4 5 -3 53 6 107 19 54 14 114 28 133 31 19 3 43 8 53 11 11 3 29 7 40 8 12
2 36 6 52 9 36 8 74 14 140 23 28 3 59 8 70 10 11 2 45 6 75 10 30 3 66 7 80
9 50 8 178 16 303 20 71 2 131 6 134 9 3 3 13 2 21 -3 8 -5 28 -5 43 -1z"/>
<path d="M3305 6219 c-310 -63 -573 -234 -769 -502 -34 -45 -67 -94 -75 -107
-39 -68 -91 -173 -91 -185 0 -7 -3 -15 -8 -17 -5 -2 -72 -189 -77 -218 -1 -3
-5 -27 -10 -55 -4 -27 -10 -57 -12 -65 -7 -30 -16 -127 -17 -182 -1 -32 -3
-58 -6 -58 -3 0 -4 -17 -3 -37 5 -89 13 -180 19 -213 3 -19 8 -48 10 -65 13
-78 21 -115 39 -164 8 -23 14 -42 14 -44 0 -1 3 -11 6 -22 125 -372 395 -675
740 -831 22 -10 42 -18 45 -19 3 0 11 -4 18 -8 6 -5 12 -6 12 -2 0 3 12 -1 28
-9 15 -8 44 -17 66 -20 21 -4 41 -8 45 -10 10 -7 87 -17 156 -21 33 -2 61 -4
63 -5 3 -3 41 -3 45 0 1 1 27 3 57 5 83 6 119 11 192 29 78 18 222 71 258 95
14 9 42 26 63 36 40 21 165 112 214 156 54 48 145 154 198 229 56 79 145 242
145 265 0 7 3 15 8 17 6 2 71 189 78 223 1 6 4 26 8 45 3 19 8 46 11 60 7 33
18 128 19 163 1 15 5 27 9 27 5 0 5 5 2 11 -10 15 -11 99 -2 99 5 0 6 4 2 9
-3 6 -8 38 -10 73 -6 86 -14 158 -21 188 -3 14 -7 34 -9 45 -9 48 -16 76 -26
102 l-11 28 -20 -40 c-32 -62 -138 -192 -138 -169 0 4 -6 0 -12 -9 -7 -9 -42
-31 -78 -48 -169 -82 -364 -24 -496 146 -33 42 -87 140 -90 163 -2 7 -6 21
-10 30 -4 9 -8 23 -10 30 -1 8 -6 21 -9 30 -18 41 -26 281 -13 347 12 59 31
130 38 140 3 6 14 31 24 58 10 26 21 47 26 47 5 0 12 10 16 22 3 12 17 33 31
47 39 42 45 57 26 72 -9 8 -19 13 -22 12 -3 -1 -19 5 -36 12 -162 74 -458 103
-650 64z"/>
<path d="M7486 6223 c-255 -44 -512 -187 -691 -385 -89 -98 -134 -159 -181
-243 -9 -16 -21 -33 -26 -36 -5 -3 -9 -9 -9 -12 0 -4 -11 -30 -24 -59 -14 -29
-25 -58 -25 -65 0 -6 -3 -13 -8 -15 -6 -2 -75 -202 -75 -218 0 -3 -4 -21 -9
-40 -5 -19 -11 -48 -13 -65 -2 -16 -7 -48 -11 -69 -3 -22 -7 -67 -9 -101 -1
-34 -4 -66 -7 -71 -3 -5 -2 -18 2 -29 4 -11 4 -30 -1 -42 -5 -13 -5 -23 -1
-23 4 0 7 -24 8 -53 1 -55 9 -135 18 -177 3 -14 11 -50 17 -80 32 -156 137
-397 224 -517 17 -23 37 -52 45 -64 22 -34 215 -229 226 -229 5 0 16 -9 24
-20 8 -11 18 -20 23 -20 7 0 66 -38 77 -50 16 -18 178 -93 255 -118 110 -37
173 -49 280 -56 33 -3 62 -5 65 -6 3 -1 10 -1 15 0 6 1 44 3 85 5 41 2 85 6
96 8 12 3 38 8 58 11 51 8 160 44 226 73 101 46 92 41 175 93 22 13 45 29 51
35 6 5 22 17 34 25 32 21 117 98 154 139 17 19 38 42 46 51 39 42 90 110 83
110 -4 0 -3 4 3 8 22 14 163 262 149 262 -3 0 2 15 12 33 9 17 18 37 19 42 2
6 16 57 33 115 32 111 36 133 48 220 9 68 9 347 0 415 -17 130 -58 285 -65
250 -8 -39 -152 -228 -152 -199 0 4 -6 0 -12 -9 -7 -9 -42 -31 -78 -48 -78
-38 -183 -47 -259 -22 -25 8 -52 15 -58 15 -7 1 -13 5 -13 10 0 4 -7 8 -15 8
-8 0 -15 5 -15 10 0 6 -6 10 -12 10 -26 1 -158 142 -158 168 0 6 -4 12 -8 14
-13 5 -72 147 -72 173 0 14 -3 25 -7 25 -9 0 -8 -1 -17 143 -3 54 -8 102 -11
108 -4 5 -2 9 2 9 5 0 9 8 10 18 0 18 7 64 18 121 15 78 109 254 154 288 14
10 14 13 1 26 -14 14 -166 72 -212 81 -13 3 -48 10 -78 17 -80 17 -311 19
-404 2z"/>
<path d="M4914 3272 c-4 -20 -8 -42 -10 -49 -14 -70 -20 -258 -9 -323 2 -14 7
-45 10 -70 15 -104 103 -317 163 -392 82 -103 224 -210 297 -224 6 -1 12 -3
15 -4 41 -15 189 -19 255 -6 39 8 126 49 177 83 26 18 101 88 124 116 63 75
147 232 158 292 3 13 7 28 10 33 3 5 7 19 10 33 3 13 8 35 11 49 3 14 7 44 9
66 2 23 5 45 8 50 6 12 2 187 -5 239 -13 89 -19 120 -27 128 -4 5 -30 -3 -58
-16 -28 -13 -63 -28 -79 -32 -33 -10 -34 -10 -53 -18 -21 -8 -134 -34 -200
-46 -56 -10 -375 -8 -420 2 -14 4 -38 9 -55 12 -65 13 -94 20 -115 27 -8 4
-49 18 -90 33 -41 14 -85 33 -96 40 -21 13 -22 12 -30 -23z"/>
</g>
</svg>
